<?xml version="1.0" standalone="no"?>
<!DOCTYPE svg PUBLIC "-//W3C//DTD SVG 20010904//EN"
 "http://www.w3.org/TR/2001/REC-SVG-20010904/DTD/svg10.dtd">
<svg version="1.0" xmlns="http://www.w3.org/2000/svg"
 width="490.000000pt" height="408.000000pt" viewBox="0 0 490.000000 408.000000"
 preserveAspectRatio="xMidYMid meet">

<g transform="translate(0.000000,408.000000) scale(0.100000,-0.100000)"
fill="#000000" stroke="none">
<path d="M2943 3859 c-21 -30 -55 -76 -74 -103 -19 -26 -43 -61 -54 -76 -11
-16 -51 -71 -88 -124 l-68 -96 -278 0 c-259 0 -279 1 -295 19 -16 18 -70 93
-228 319 -39 56 -75 102 -79 102 -10 0 -15 -27 -33 -165 -27 -204 -37 -274
-65 -469 -6 -37 -16 -76 -24 -85 -8 -9 -29 -39 -45 -67 l-30 -52 54 -121 54
-122 0 -139 0 -139 33 -25 c17 -13 70 -44 116 -68 l84 -43 60 -117 c33 -65 64
-118 70 -118 10 0 9 9 -14 125 -17 90 -16 106 6 119 11 6 33 19 48 30 43 28
51 10 72 -145 14 -110 25 -157 59 -241 22 -58 49 -116 58 -129 16 -23 17 -20
17 92 1 88 5 119 15 128 9 7 41 11 83 9 l68 -3 5 -119 c5 -130 9 -133 50 -41
50 111 68 176 86 313 13 102 22 142 32 142 22 0 100 -39 105 -52 2 -7 1 -22
-3 -33 -12 -31 -30 -138 -30 -171 1 -27 1 -28 15 -10 8 11 38 65 67 122 l52
103 103 56 c56 31 109 66 118 78 12 17 15 51 15 157 0 75 4 140 8 145 5 6 16
28 24 50 9 22 28 66 42 98 15 32 24 66 21 76 -3 11 -24 48 -47 83 -33 51 -43
77 -50 133 -5 39 -13 104 -18 145 -5 41 -14 104 -19 140 -5 36 -17 121 -26
190 -9 69 -20 131 -25 139 -5 10 -18 -1 -47 -40z m-1016 -810 c179 -86 252
-119 261 -119 5 0 17 -9 29 -19 16 -15 20 -33 21 -94 1 -51 -2 -78 -11 -86
-10 -8 -45 1 -138 33 -210 74 -190 59 -253 188 -54 111 -63 138 -49 151 9 9
-3 14 140 -54z m1053 33 c0 -9 -26 -67 -57 -130 -63 -128 -62 -127 -223 -181
-36 -12 -74 -27 -85 -32 -11 -5 -33 -11 -50 -12 l-30 -2 -3 81 c-2 66 0 84 14
95 30 25 409 206 422 201 6 -2 12 -11 12 -20z"/>
<path d="M830 3419 c0 -6 11 -29 24 -52 82 -145 107 -199 96 -212 -6 -7 -123
-88 -260 -180 -138 -92 -250 -174 -250 -181 0 -8 16 -28 35 -45 19 -17 35 -38
35 -48 -1 -10 -32 -32 -88 -60 -48 -24 -118 -61 -155 -83 l-68 -39 21 -27 c12
-15 33 -43 48 -62 155 -202 224 -290 231 -295 5 -2 67 32 137 76 122 77 131
80 169 73 66 -12 138 -8 171 9 17 9 80 66 139 126 61 62 117 111 127 111 26 0
32 -23 15 -57 -8 -15 -27 -64 -41 -107 -31 -91 -30 -92 49 -121 116 -41 348
-149 425 -197 30 -19 24 -31 -12 -24 -282 59 -698 106 -698 78 0 -5 7 -13 16
-16 10 -4 114 -66 233 -140 119 -73 293 -179 386 -236 94 -56 208 -126 255
-155 47 -29 148 -90 225 -135 77 -45 157 -93 177 -106 41 -26 63 -31 55 -11
-8 22 -68 180 -87 232 -10 28 -35 95 -55 150 -20 55 -41 109 -46 120 -4 11
-16 44 -25 73 -15 47 -30 65 -143 169 -132 122 -400 383 -455 444 -32 34 -33
37 -25 95 16 135 29 231 35 259 5 27 -3 40 -63 109 -37 43 -72 84 -77 90 -5 8
24 76 84 194 51 101 90 185 87 189 -4 3 -21 -1 -39 -10 -88 -41 -213 -99 -257
-118 l-50 -21 -103 42 c-57 23 -121 50 -143 60 -116 52 -135 57 -135 39z m320
-430 c0 -21 -102 -178 -119 -183 -9 -3 -72 -12 -141 -20 -69 -9 -142 -18 -162
-21 -57 -8 -49 17 20 61 53 35 361 171 390 173 6 1 12 -4 12 -10z"/>
<path d="M3200 3423 c0 -3 38 -84 85 -179 47 -95 85 -180 85 -189 0 -9 -30
-49 -66 -88 l-66 -72 6 -70 c9 -100 23 -224 31 -267 7 -35 4 -41 -31 -74 -22
-20 -113 -109 -204 -198 -91 -89 -212 -205 -270 -258 -90 -83 -107 -104 -119
-145 -8 -26 -18 -55 -22 -63 -4 -8 -28 -78 -54 -155 -25 -77 -50 -149 -55
-160 -23 -50 -72 -206 -67 -211 7 -7 384 214 667 391 63 39 176 109 250 155
74 46 187 116 250 155 63 40 129 80 145 88 27 14 28 16 10 23 -39 15 -400 -22
-540 -56 -193 -46 -214 -47 -165 -10 24 18 263 140 274 140 3 0 34 13 68 28
35 16 83 34 107 42 24 8 45 20 48 28 6 14 -8 63 -51 173 -14 37 -22 69 -19 73
18 18 49 -4 148 -104 142 -143 194 -167 304 -140 l50 12 103 -63 c57 -34 115
-70 130 -81 14 -10 29 -18 32 -18 8 0 278 363 283 380 3 11 -20 29 -79 60 -46
24 -112 59 -148 77 -36 19 -69 39 -75 45 -7 6 6 24 38 53 26 24 47 48 47 54 0
6 -10 15 -22 22 -13 6 -132 84 -266 172 -270 179 -253 157 -198 255 60 108 90
171 85 176 -5 6 -82 -23 -184 -68 -172 -77 -182 -80 -217 -63 -105 49 -311
137 -321 137 -4 0 -7 -3 -7 -7z m574 -485 c242 -99 377 -188 264 -174 -24 3
-101 13 -173 22 -129 16 -170 30 -182 62 -4 9 -22 43 -40 74 -32 55 -40 78
-26 78 4 0 75 -28 157 -62z"/>
<path d="M1046 1140 c-27 -5 -51 -19 -73 -44 l-33 -36 0 -159 c0 -147 2 -160
22 -186 41 -52 62 -55 378 -55 l291 0 -3 57 -3 57 -236 1 c-185 0 -239 3 -252
14 -14 11 -17 33 -17 122 0 148 -17 139 278 139 l233 0 -3 48 -3 47 -270 1
c-148 1 -288 -2 -309 -6z"/>
<path d="M1710 905 l0 -245 91 0 90 0 -3 95 c-4 135 1 136 186 6 l145 -101
133 0 c107 1 130 3 116 13 -9 7 -62 43 -118 82 l-101 70 46 11 c97 25 119 58
113 171 -4 83 -26 116 -87 133 -20 5 -164 10 -323 10 l-288 0 0 -245z m501
135 c25 -14 26 -71 0 -94 -16 -14 -39 -16 -167 -14 l-149 3 -3 58 -3 57 151 0
c85 0 160 -5 171 -10z"/>
<path d="M2487 1143 c-4 -3 -7 -104 -7 -224 l0 -218 29 -20 c28 -20 42 -21
313 -21 257 0 287 2 318 19 74 39 80 173 11 214 l-29 17 29 29 c24 25 29 38
29 79 0 62 -32 106 -88 122 -41 11 -594 14 -605 3z m501 -105 c16 -16 15 -53
-2 -67 -9 -8 -62 -11 -167 -9 l-153 3 1 33 c1 17 2 37 2 42 1 15 304 13 319
-2z m10 -180 c7 -7 12 -27 12 -45 0 -47 -26 -54 -194 -51 l-141 3 -5 48 c-4
26 -4 50 -1 52 2 3 75 5 161 5 108 0 160 -4 168 -12z"/>
<path d="M3267 1144 c-4 -4 -7 -115 -7 -246 l0 -238 90 0 89 0 3 98 c3 89 5
97 23 100 13 2 75 -35 164 -98 l145 -100 129 0 130 0 -118 82 -118 83 34 8
c104 27 129 57 129 155 0 75 -18 115 -63 139 -28 16 -68 18 -327 21 -163 2
-299 0 -303 -4z m497 -110 c21 -20 20 -68 0 -89 -13 -13 -40 -15 -167 -13
l-152 3 -3 44 c-5 73 -10 71 157 71 123 0 152 -3 165 -16z"/>
<path d="M1882 528 c-7 -7 -12 -28 -12 -48 0 -51 14 -60 95 -60 76 0 95 9 95
47 0 21 -4 23 -50 23 -27 0 -50 -4 -50 -10 0 -5 14 -10 31 -10 20 0 29 -4 27
-12 -5 -15 -50 -22 -85 -13 -20 5 -24 11 -21 38 l3 32 73 3 c39 2 72 7 72 12
0 15 -164 12 -178 -2z"/>
<path d="M2130 480 c0 -53 2 -60 20 -60 13 0 20 7 20 20 0 15 7 20 28 20 16 0
37 -9 47 -20 10 -11 29 -20 43 -20 24 0 24 1 8 19 -16 18 -16 20 -1 28 11 7
16 20 13 39 l-3 29 -87 3 -88 3 0 -61z m140 25 c0 -11 -12 -15 -50 -15 -38 0
-50 4 -50 15 0 11 12 15 50 15 38 0 50 -4 50 -15z"/>
<path d="M2382 528 c-15 -15 -16 -80 0 -96 18 -18 162 -16 177 2 7 8 11 34 9
58 l-3 43 -85 3 c-58 2 -89 -1 -98 -10z m146 -42 c5 -37 -5 -42 -67 -38 -48 4
-51 6 -51 31 0 38 7 42 65 39 47 -3 50 -5 53 -32z"/>
<path d="M2640 499 c0 -70 10 -79 93 -79 44 0 78 5 85 12 7 7 12 34 12 60 0
41 -3 48 -20 48 -17 0 -20 -7 -20 -44 0 -50 -8 -56 -65 -47 -39 6 -40 8 -43
49 -3 34 -7 42 -23 42 -16 0 -19 -7 -19 -41z"/>
<path d="M2910 480 c0 -48 3 -60 16 -60 9 0 18 9 21 20 4 17 14 20 57 20 64 0
78 9 74 46 l-3 29 -82 3 -83 3 0 -61z m125 20 c0 -10 -13 -16 -42 -18 -38 -3
-43 -1 -43 18 0 19 5 21 43 18 29 -2 42 -8 42 -18z"/>
<path d="M1213 475 c103 -7 272 -14 375 -16 172 -4 187 -3 190 14 3 16 -19 17
-375 16 l-378 -2 188 -12z"/>
<path d="M3152 473 c4 -21 5 -21 348 -9 445 15 458 23 42 24 -370 2 -393 1
-390 -15z"/>
<path d="M1671 346 c3 -3 129 -19 280 -36 151 -16 328 -37 394 -46 114 -15
129 -14 300 6 99 11 281 32 404 45 123 14 227 27 229 30 9 8 -62 6 -339 -11
-304 -19 -624 -21 -819 -6 -182 15 -456 26 -449 18z"/>
</g>
</svg>
